# xmcd
#
# Track frame offsets:
#	150
#	13700
#	24672
#	44950
#	63165
#	78477
#	94407
#	104572
#	117642
#	130830
#	144602
#	156805
#
# Disc length: 2259 seconds
#
# Revision: 0
# Processed by: cddbd v1.4PL0 Copyright (c) Steve Scherf et al.
# Submitted via: dBpowerAMP V4.0
#
DISCID=ae08d10c
DTITLE=Blue Ridge - Common Ground
DYEAR=1999
DGENRE=bluegrass
TTITLE0=Katie's Winter Love
TTITLE1=Shoot The Moon
TTITLE2=No Sad Goodbyes
TTITLE3=Talk It Out
TTITLE4=It's So Cold
TTITLE5=Rosa Lee
TTITLE6=Appalachian Queen
TTITLE7=Every Dog Must Have Its Day
TTITLE8=I Don't Know Why
TTITLE9=Sugar Coated Love
TTITLE10=New Road
TTITLE11=Highway Bound
EXTD=
EXTT0=
EXTT1=
EXTT2=
EXTT3=
EXTT4=
EXTT5=
EXTT6=
EXTT7=
EXTT8=
EXTT9=
EXTT10=
EXTT11=
PLAYORDER=
